<svg width="280" height="52" viewBox="0 0 280 52" fill="none" xmlns="http://www.w3.org/2000/svg">
<path d="M4 1H278C278.265 1 278.52 1.10536 278.707 1.29289C278.895 1.48043 279 1.73478 279 2V50C279 50.2652 278.895 50.5196 278.707 50.7071C278.52 50.8946 278.265 51 278 51H4C3.20435 51 2.44129 50.6839 1.87868 50.1213C1.31607 49.5587 1 48.7956 1 48V4C1 3.20435 1.31607 2.44129 1.87868 1.87868C2.44129 1.31607 3.20435 1 4 1V1Z" stroke="#E0B973" stroke-width="2"/>
<path d="M35.744 29.976V31H27.824V19.8H35.504V20.824H29.008V24.808H34.8V25.816H29.008V29.976H35.744ZM48.7831 22.52C49.8391 22.52 50.6658 22.824 51.2631 23.432C51.8711 24.04 52.1751 24.936 52.1751 26.12V31H51.0391V26.232C51.0391 25.3573 50.8258 24.6907 50.3991 24.232C49.9831 23.7733 49.3911 23.544 48.6231 23.544C47.7485 23.544 47.0605 23.816 46.5591 24.36C46.0578 24.8933 45.8071 25.6347 45.8071 26.584V31H44.6711V26.232C44.6711 25.3573 44.4578 24.6907 44.0311 24.232C43.6151 23.7733 43.0178 23.544 42.2391 23.544C41.3751 23.544 40.6871 23.816 40.1751 24.36C39.6738 24.8933 39.4231 25.6347 39.4231 26.584V31H38.2871V22.584H39.3751V24.12C39.6738 23.608 40.0898 23.2133 40.6231 22.936C41.1565 22.6587 41.7698 22.52 42.4631 22.52C43.1671 22.52 43.7751 22.6693 44.2871 22.968C44.8098 23.2667 45.1991 23.7093 45.4551 24.296C45.7645 23.7413 46.2071 23.3093 46.7831 23C47.3698 22.68 48.0365 22.52 48.7831 22.52ZM58.1999 22.52C59.2985 22.52 60.1412 22.7973 60.7279 23.352C61.3145 23.896 61.6079 24.7067 61.6079 25.784V31H60.5199V29.688C60.2639 30.1253 59.8852 30.4667 59.3839 30.712C58.8932 30.9573 58.3065 31.08 57.6239 31.08C56.6852 31.08 55.9385 30.856 55.3839 30.408C54.8292 29.96 54.5519 29.368 54.5519 28.632C54.5519 27.9173 54.8079 27.3413 55.3199 26.904C55.8425 26.4667 56.6692 26.248 57.7999 26.248H60.4719V25.736C60.4719 25.0107 60.2692 24.4613 59.8639 24.088C59.4585 23.704 58.8665 23.512 58.0879 23.512C57.5545 23.512 57.0425 23.6027 56.5519 23.784C56.0612 23.9547 55.6399 24.1947 55.2879 24.504L54.7759 23.656C55.2025 23.2933 55.7145 23.016 56.3119 22.824C56.9092 22.6213 57.5385 22.52 58.1999 22.52ZM57.7999 30.184C58.4399 30.184 58.9892 30.04 59.4479 29.752C59.9065 29.4533 60.2479 29.0267 60.4719 28.472V27.096H57.8319C56.3919 27.096 55.6719 27.5973 55.6719 28.6C55.6719 29.0907 55.8585 29.48 56.2319 29.768C56.6052 30.0453 57.1279 30.184 57.7999 30.184ZM64.6934 22.584H65.8294V31H64.6934V22.584ZM65.2694 20.744C65.0347 20.744 64.8374 20.664 64.6774 20.504C64.5174 20.344 64.4374 20.152 64.4374 19.928C64.4374 19.7147 64.5174 19.528 64.6774 19.368C64.8374 19.208 65.0347 19.128 65.2694 19.128C65.504 19.128 65.7014 19.208 65.8614 19.368C66.0214 19.5173 66.1014 19.6987 66.1014 19.912C66.1014 20.1467 66.0214 20.344 65.8614 20.504C65.7014 20.664 65.504 20.744 65.2694 20.744ZM68.9903 19.128H70.1263V31H68.9903V19.128ZM84.7386 28.008H78.4986L77.1546 31H75.9226L81.0426 19.8H82.2106L87.3306 31H86.0826L84.7386 28.008ZM84.3066 27.048L81.6186 21.032L78.9306 27.048H84.3066ZM96.5453 19.128V31H95.4573V29.336C95.1159 29.9013 94.6626 30.3333 94.0973 30.632C93.5426 30.9307 92.9133 31.08 92.2093 31.08C91.4199 31.08 90.7053 30.8987 90.0653 30.536C89.4253 30.1733 88.9239 29.6667 88.5613 29.016C88.1986 28.3653 88.0173 27.624 88.0173 26.792C88.0173 25.96 88.1986 25.2187 88.5613 24.568C88.9239 23.9173 89.4253 23.416 90.0653 23.064C90.7053 22.7013 91.4199 22.52 92.2093 22.52C92.8919 22.52 93.5053 22.664 94.0493 22.952C94.6039 23.2293 95.0573 23.64 95.4093 24.184V19.128H96.5453ZM92.3053 30.072C92.8919 30.072 93.4199 29.9387 93.8893 29.672C94.3693 29.3947 94.7426 29.0053 95.0093 28.504C95.2866 28.0027 95.4253 27.432 95.4253 26.792C95.4253 26.152 95.2866 25.5813 95.0093 25.08C94.7426 24.5787 94.3693 24.1947 93.8893 23.928C93.4199 23.6507 92.8919 23.512 92.3053 23.512C91.7079 23.512 91.1693 23.6507 90.6893 23.928C90.2199 24.1947 89.8466 24.5787 89.5693 25.08C89.3026 25.5813 89.1693 26.152 89.1693 26.792C89.1693 27.432 89.3026 28.0027 89.5693 28.504C89.8466 29.0053 90.2199 29.3947 90.6893 29.672C91.1693 29.9387 91.7079 30.072 92.3053 30.072ZM107.389 19.128V31H106.301V29.336C105.96 29.9013 105.506 30.3333 104.941 30.632C104.386 30.9307 103.757 31.08 103.053 31.08C102.264 31.08 101.549 30.8987 100.909 30.536C100.269 30.1733 99.7677 29.6667 99.405 29.016C99.0423 28.3653 98.861 27.624 98.861 26.792C98.861 25.96 99.0423 25.2187 99.405 24.568C99.7677 23.9173 100.269 23.416 100.909 23.064C101.549 22.7013 102.264 22.52 103.053 22.52C103.736 22.52 104.349 22.664 104.893 22.952C105.448 23.2293 105.901 23.64 106.253 24.184V19.128H107.389ZM103.149 30.072C103.736 30.072 104.264 29.9387 104.733 29.672C105.213 29.3947 105.586 29.0053 105.853 28.504C106.13 28.0027 106.269 27.432 106.269 26.792C106.269 26.152 106.13 25.5813 105.853 25.08C105.586 24.5787 105.213 24.1947 104.733 23.928C104.264 23.6507 103.736 23.512 103.149 23.512C102.552 23.512 102.013 23.6507 101.533 23.928C101.064 24.1947 100.69 24.5787 100.413 25.08C100.146 25.5813 100.013 26.152 100.013 26.792C100.013 27.432 100.146 28.0027 100.413 28.504C100.69 29.0053 101.064 29.3947 101.533 29.672C102.013 29.9387 102.552 30.072 103.149 30.072ZM111.641 24.232C111.907 23.6667 112.302 23.24 112.825 22.952C113.358 22.664 114.014 22.52 114.793 22.52V23.624L114.521 23.608C113.635 23.608 112.942 23.88 112.441 24.424C111.939 24.968 111.689 25.7307 111.689 26.712V31H110.553V22.584H111.641V24.232ZM124.1 27.144H117.06C117.124 28.0187 117.46 28.728 118.068 29.272C118.676 29.8053 119.444 30.072 120.372 30.072C120.894 30.072 121.374 29.9813 121.812 29.8C122.249 29.608 122.628 29.3307 122.948 28.968L123.588 29.704C123.214 30.152 122.745 30.4933 122.18 30.728C121.625 30.9627 121.012 31.08 120.34 31.08C119.476 31.08 118.708 30.8987 118.036 30.536C117.374 30.1627 116.857 29.6507 116.484 29C116.11 28.3493 115.924 27.6133 115.924 26.792C115.924 25.9707 116.1 25.2347 116.452 24.584C116.814 23.9333 117.305 23.4267 117.924 23.064C118.553 22.7013 119.257 22.52 120.036 22.52C120.814 22.52 121.513 22.7013 122.132 23.064C122.75 23.4267 123.236 23.9333 123.588 24.584C123.94 25.224 124.116 25.96 124.116 26.792L124.1 27.144ZM120.036 23.496C119.225 23.496 118.542 23.7573 117.988 24.28C117.444 24.792 117.134 25.464 117.06 26.296H123.028C122.953 25.464 122.638 24.792 122.084 24.28C121.54 23.7573 120.857 23.496 120.036 23.496ZM128.684 31.08C128.001 31.08 127.345 30.984 126.716 30.792C126.097 30.5893 125.612 30.3387 125.26 30.04L125.772 29.144C126.124 29.4213 126.566 29.6507 127.1 29.832C127.633 30.0027 128.188 30.088 128.764 30.088C129.532 30.088 130.097 29.9707 130.46 29.736C130.833 29.4907 131.02 29.1493 131.02 28.712C131.02 28.4027 130.918 28.1627 130.716 27.992C130.513 27.8107 130.257 27.6773 129.948 27.592C129.638 27.496 129.228 27.4053 128.716 27.32C128.033 27.192 127.484 27.064 127.068 26.936C126.652 26.7973 126.294 26.568 125.996 26.248C125.708 25.928 125.564 25.4853 125.564 24.92C125.564 24.216 125.857 23.64 126.444 23.192C127.03 22.744 127.846 22.52 128.892 22.52C129.436 22.52 129.98 22.5947 130.524 22.744C131.068 22.8827 131.516 23.0693 131.868 23.304L131.372 24.216C130.678 23.736 129.852 23.496 128.892 23.496C128.166 23.496 127.617 23.624 127.244 23.88C126.881 24.136 126.7 24.472 126.7 24.888C126.7 25.208 126.801 25.464 127.004 25.656C127.217 25.848 127.478 25.992 127.788 26.088C128.097 26.1733 128.524 26.264 129.068 26.36C129.74 26.488 130.278 26.616 130.684 26.744C131.089 26.872 131.436 27.0907 131.724 27.4C132.012 27.7093 132.156 28.136 132.156 28.68C132.156 29.416 131.846 30.0027 131.228 30.44C130.62 30.8667 129.772 31.08 128.684 31.08ZM136.512 31.08C135.829 31.08 135.173 30.984 134.544 30.792C133.925 30.5893 133.44 30.3387 133.088 30.04L133.6 29.144C133.952 29.4213 134.395 29.6507 134.928 29.832C135.461 30.0027 136.016 30.088 136.592 30.088C137.36 30.088 137.925 29.9707 138.288 29.736C138.661 29.4907 138.848 29.1493 138.848 28.712C138.848 28.4027 138.747 28.1627 138.544 27.992C138.341 27.8107 138.085 27.6773 137.776 27.592C137.467 27.496 137.056 27.4053 136.544 27.32C135.861 27.192 135.312 27.064 134.896 26.936C134.48 26.7973 134.123 26.568 133.824 26.248C133.536 25.928 133.392 25.4853 133.392 24.92C133.392 24.216 133.685 23.64 134.272 23.192C134.859 22.744 135.675 22.52 136.72 22.52C137.264 22.52 137.808 22.5947 138.352 22.744C138.896 22.8827 139.344 23.0693 139.696 23.304L139.2 24.216C138.507 23.736 137.68 23.496 136.72 23.496C135.995 23.496 135.445 23.624 135.072 23.88C134.709 24.136 134.528 24.472 134.528 24.888C134.528 25.208 134.629 25.464 134.832 25.656C135.045 25.848 135.307 25.992 135.616 26.088C135.925 26.1733 136.352 26.264 136.896 26.36C137.568 26.488 138.107 26.616 138.512 26.744C138.917 26.872 139.264 27.0907 139.552 27.4C139.84 27.7093 139.984 28.136 139.984 28.68C139.984 29.416 139.675 30.0027 139.056 30.44C138.448 30.8667 137.6 31.08 136.512 31.08Z" fill="white"/>
<path d="M35.744 29.976H36.244V29.476H35.744V29.976ZM35.744 31V31.5H36.244V31H35.744ZM27.824 31H27.324V31.5H27.824V31ZM27.824 19.8V19.3H27.324V19.8H27.824ZM35.504 19.8H36.004V19.3H35.504V19.8ZM35.504 20.824V21.324H36.004V20.824H35.504ZM29.008 20.824V20.324H28.508V20.824H29.008ZM29.008 24.808H28.508V25.308H29.008V24.808ZM34.8 24.808H35.3V24.308H34.8V24.808ZM34.8 25.816V26.316H35.3V25.816H34.8ZM29.008 25.816V25.316H28.508V25.816H29.008ZM29.008 29.976H28.508V30.476H29.008V29.976ZM35.244 29.976V31H36.244V29.976H35.244ZM35.744 30.5H27.824V31.5H35.744V30.5ZM28.324 31V19.8H27.324V31H28.324ZM27.824 20.3H35.504V19.3H27.824V20.3ZM35.004 19.8V20.824H36.004V19.8H35.004ZM35.504 20.324H29.008V21.324H35.504V20.324ZM28.508 20.824V24.808H29.508V20.824H28.508ZM29.008 25.308H34.8V24.308H29.008V25.308ZM34.3 24.808V25.816H35.3V24.808H34.3ZM34.8 25.316H29.008V26.316H34.8V25.316ZM28.508 25.816V29.976H29.508V25.816H28.508ZM29.008 30.476H35.744V29.476H29.008V30.476ZM51.2631 23.432L50.9064 23.7824L50.9096 23.7856L51.2631 23.432ZM52.1751 31V31.5H52.6751V31H52.1751ZM51.0391 31H50.5391V31.5H51.0391V31ZM50.3991 24.232L50.0287 24.5679L50.033 24.5726L50.3991 24.232ZM46.5591 24.36L46.9235 24.7025L46.9268 24.6988L46.5591 24.36ZM45.8071 31V31.5H46.3071V31H45.8071ZM44.6711 31H44.1711V31.5H44.6711V31ZM44.0311 24.232L43.6607 24.5679L43.665 24.5726L44.0311 24.232ZM40.1751 24.36L39.811 24.0173L39.8108 24.0175L40.1751 24.36ZM39.4231 31V31.5H39.9231V31H39.4231ZM38.2871 31H37.7871V31.5H38.2871V31ZM38.2871 22.584V22.084H37.7871V22.584H38.2871ZM39.3751 22.584H39.8751V22.084H39.3751V22.584ZM39.3751 24.12H38.8751V25.9695L39.807 24.3719L39.3751 24.12ZM40.6231 22.936L40.8538 23.3796L40.8538 23.3796L40.6231 22.936ZM44.2871 22.968L44.0352 23.3999L44.0391 23.4021L44.2871 22.968ZM45.4551 24.296L44.9969 24.496L45.4004 25.4207L45.8918 24.5395L45.4551 24.296ZM46.7831 23L47.0197 23.4405L47.0226 23.4389L46.7831 23ZM48.7831 23.02C49.739 23.02 50.4246 23.2919 50.9065 23.7824L51.6198 23.0816C50.907 22.3561 49.9392 22.02 48.7831 22.02V23.02ZM50.9096 23.7856C51.393 24.269 51.6751 25.0176 51.6751 26.12H52.6751C52.6751 24.8544 52.3492 23.811 51.6167 23.0784L50.9096 23.7856ZM51.6751 26.12V31H52.6751V26.12H51.6751ZM52.1751 30.5H51.0391V31.5H52.1751V30.5ZM51.5391 31V26.232H50.5391V31H51.5391ZM51.5391 26.232C51.5391 25.2813 51.307 24.4739 50.7652 23.8914L50.033 24.5726C50.3446 24.9075 50.5391 25.4334 50.5391 26.232H51.5391ZM50.7695 23.8961C50.2367 23.3087 49.4957 23.044 48.6231 23.044V24.044C49.2865 24.044 49.7295 24.238 50.0288 24.5679L50.7695 23.8961ZM48.6231 23.044C47.6365 23.044 46.8047 23.3557 46.1914 24.0212L46.9268 24.6988C47.3162 24.2763 47.8604 24.044 48.6231 24.044V23.044ZM46.1948 24.0175C45.5828 24.6686 45.3071 25.5465 45.3071 26.584H46.3071C46.3071 25.7229 46.5328 25.1181 46.9234 24.7025L46.1948 24.0175ZM45.3071 26.584V31H46.3071V26.584H45.3071ZM45.8071 30.5H44.6711V31.5H45.8071V30.5ZM45.1711 31V26.232H44.1711V31H45.1711ZM45.1711 26.232C45.1711 25.2813 44.939 24.4739 44.3972 23.8914L43.665 24.5726C43.9766 24.9075 44.1711 25.4334 44.1711 26.232H45.1711ZM44.4015 23.8961C43.8674 23.3072 43.12 23.044 42.2391 23.044V24.044C42.9156 24.044 43.3629 24.2394 43.6608 24.5679L44.4015 23.8961ZM42.2391 23.044C41.2609 23.044 40.4326 23.3569 39.811 24.0173L40.5392 24.7027C40.9417 24.2751 41.4894 24.044 42.2391 24.044V23.044ZM39.8108 24.0175C39.1988 24.6686 38.9231 25.5465 38.9231 26.584H39.9231C39.9231 25.7229 40.1488 25.1181 40.5394 24.7025L39.8108 24.0175ZM38.9231 26.584V31H39.9231V26.584H38.9231ZM39.4231 30.5H38.2871V31.5H39.4231V30.5ZM38.7871 31V22.584H37.7871V31H38.7871ZM38.2871 23.084H39.3751V22.084H38.2871V23.084ZM38.8751 22.584V24.12H39.8751V22.584H38.8751ZM39.807 24.3719C40.0574 23.9428 40.403 23.614 40.8538 23.3796L40.3924 22.4924C39.7765 22.8127 39.2902 23.2732 38.9432 23.8681L39.807 24.3719ZM40.8538 23.3796C41.3057 23.1446 41.8377 23.02 42.4631 23.02V22.02C41.7019 22.02 41.0073 22.1727 40.3924 22.4924L40.8538 23.3796ZM42.4631 23.02C43.0953 23.02 43.6129 23.1536 44.0352 23.3999L44.5391 22.5361C43.9374 22.1851 43.239 22.02 42.4631 22.02V23.02ZM44.0391 23.4021C44.4622 23.6439 44.781 24.0013 44.9969 24.496L45.9134 24.096C45.6173 23.4174 45.1574 22.8894 44.5352 22.5339L44.0391 23.4021ZM45.8918 24.5395C46.1532 24.0708 46.5252 23.706 47.0197 23.4405L46.5466 22.5595C45.889 22.9126 45.3757 23.4118 45.0184 24.0525L45.8918 24.5395ZM47.0226 23.4389C47.5275 23.1635 48.1101 23.02 48.7831 23.02V22.02C47.9628 22.02 47.2121 22.1965 46.5437 22.5611L47.0226 23.4389ZM60.7279 23.352L60.3844 23.7153L60.3879 23.7186L60.7279 23.352ZM61.6079 31V31.5H62.1079V31H61.6079ZM60.5199 31H60.0199V31.5H60.5199V31ZM60.5199 29.688H61.0199V27.8441L60.0884 29.4354L60.5199 29.688ZM59.3839 30.712L59.1641 30.2629L59.1603 30.2648L59.3839 30.712ZM55.3839 30.408L55.698 30.019L55.3839 30.408ZM55.3199 26.904L54.999 26.5205L54.9951 26.5238L55.3199 26.904ZM60.4719 26.248V26.748H60.9719V26.248H60.4719ZM59.8639 24.088L59.52 24.451L59.5251 24.4558L59.8639 24.088ZM56.5519 23.784L56.7162 24.2563L56.7252 24.253L56.5519 23.784ZM55.2879 24.504L54.8598 24.7624L55.1689 25.2742L55.6179 24.8796L55.2879 24.504ZM54.7759 23.656L54.4521 23.275L54.1281 23.5504L54.3478 23.9144L54.7759 23.656ZM56.3119 22.824L56.4649 23.3001L56.4725 23.2975L56.3119 22.824ZM59.4479 29.752L59.7138 30.1755L59.7207 30.171L59.4479 29.752ZM60.4719 28.472L60.9355 28.6592L60.9719 28.5691V28.472H60.4719ZM60.4719 27.096H60.9719V26.596H60.4719V27.096ZM56.2319 29.768L55.9264 30.164L55.9337 30.1694L56.2319 29.768ZM58.1999 23.02C59.2177 23.02 59.9198 23.2761 60.3844 23.7153L61.0714 22.9887C60.3626 22.3186 59.3794 22.02 58.1999 22.02V23.02ZM60.3879 23.7186C60.8408 24.1385 61.1079 24.7956 61.1079 25.784H62.1079C62.1079 24.6178 61.7883 23.6535 61.0678 22.9854L60.3879 23.7186ZM61.1079 25.784V31H62.1079V25.784H61.1079ZM61.6079 30.5H60.5199V31.5H61.6079V30.5ZM61.0199 31V29.688H60.0199V31H61.0199ZM60.0884 29.4354C59.8871 29.7793 59.5864 30.0562 59.1641 30.2629L59.6037 31.1611C60.184 30.8771 60.6407 30.4714 60.9514 29.9406L60.0884 29.4354ZM59.1603 30.2648C58.7539 30.468 58.2475 30.58 57.6239 30.58V31.58C58.3656 31.58 59.0325 31.4467 59.6075 31.1592L59.1603 30.2648ZM57.6239 30.58C56.7631 30.58 56.139 30.3752 55.698 30.019L55.0697 30.797C55.738 31.3368 56.6073 31.58 57.6239 31.58V30.58ZM55.698 30.019C55.2652 29.6694 55.0519 29.2226 55.0519 28.632H54.0519C54.0519 29.5134 54.3932 30.2506 55.0697 30.797L55.698 30.019ZM55.0519 28.632C55.0519 28.0534 55.2514 27.6201 55.6446 27.2842L54.9951 26.5238C54.3644 27.0626 54.0519 27.7813 54.0519 28.632H55.0519ZM55.6407 27.2875C56.0307 26.9612 56.7151 26.748 57.7999 26.748V25.748C56.6234 25.748 55.6544 25.9722 54.999 26.5205L55.6407 27.2875ZM57.7999 26.748H60.4719V25.748H57.7999V26.748ZM60.9719 26.248V25.736H59.9719V26.248H60.9719ZM60.9719 25.736C60.9719 24.9174 60.7405 24.2157 60.2026 23.7202L59.5251 24.4558C59.7979 24.707 59.9719 25.1039 59.9719 25.736H60.9719ZM60.2077 23.725C59.6782 23.2234 58.9436 23.012 58.0879 23.012V24.012C58.7895 24.012 59.2389 24.1846 59.52 24.451L60.2077 23.725ZM58.0879 23.012C57.4966 23.012 56.9258 23.1128 56.3786 23.315L56.7252 24.253C57.1593 24.0926 57.6125 24.012 58.0879 24.012V23.012ZM56.3876 23.3118C55.8426 23.5013 55.3633 23.7721 54.9578 24.1284L55.6179 24.8796C55.9164 24.6173 56.2798 24.408 56.7161 24.2562L56.3876 23.3118ZM55.7159 24.2456L55.2039 23.3976L54.3478 23.9144L54.8598 24.7624L55.7159 24.2456ZM55.0997 24.037C55.4705 23.7218 55.9226 23.4743 56.4649 23.3L56.1589 22.348C55.5064 22.5577 54.9345 22.8649 54.4521 23.275L55.0997 24.037ZM56.4725 23.2975C57.0156 23.1132 57.5905 23.02 58.1999 23.02V22.02C57.4866 22.02 56.8028 22.1295 56.1512 22.3505L56.4725 23.2975ZM57.7999 30.684C58.5166 30.684 59.1619 30.5219 59.7138 30.1754L59.182 29.3286C58.8165 29.5581 58.3631 29.684 57.7999 29.684V30.684ZM59.7207 30.171C60.2732 29.8112 60.6769 29.2996 60.9355 28.6592L60.0083 28.2848C59.8189 28.7537 59.5399 29.0954 59.175 29.333L59.7207 30.171ZM60.9719 28.472V27.096H59.9719V28.472H60.9719ZM60.4719 26.596H57.8319V27.596H60.4719V26.596ZM57.8319 26.596C57.0692 26.596 56.4083 26.726 55.9262 27.0617C55.4111 27.4203 55.1719 27.9621 55.1719 28.6H56.1719C56.1719 28.2352 56.2926 28.0251 56.4976 27.8823C56.7355 27.7167 57.1545 27.596 57.8319 27.596V26.596ZM55.1719 28.6C55.1719 29.2383 55.4247 29.7768 55.9265 30.1639L56.5373 29.3721C56.2924 29.1832 56.1719 28.943 56.1719 28.6H55.1719ZM55.9337 30.1694C56.4241 30.5336 57.0665 30.684 57.7999 30.684V29.684C57.1892 29.684 56.7864 29.557 56.53 29.3666L55.9337 30.1694ZM64.6934 22.584V22.084H64.1934V22.584H64.6934ZM65.8294 22.584H66.3294V22.084H65.8294V22.584ZM65.8294 31V31.5H66.3294V31H65.8294ZM64.6934 31H64.1934V31.5H64.6934V31ZM64.6774 19.368L64.3238 19.0144L64.3238 19.0144L64.6774 19.368ZM65.8614 19.368L65.5078 19.7216L65.5139 19.7276L65.5202 19.7335L65.8614 19.368ZM64.6934 23.084H65.8294V22.084H64.6934V23.084ZM65.3294 22.584V31H66.3294V22.584H65.3294ZM65.8294 30.5H64.6934V31.5H65.8294V30.5ZM65.1934 31V22.584H64.1934V31H65.1934ZM65.2694 20.244C65.1618 20.244 65.0933 20.2129 65.0309 20.1504L64.3238 20.8576C64.5814 21.1151 64.9076 21.244 65.2694 21.244V20.244ZM65.0309 20.1504C64.9636 20.0831 64.9374 20.0179 64.9374 19.928H63.9374C63.9374 20.2861 64.0711 20.6049 64.3238 20.8576L65.0309 20.1504ZM64.9374 19.928C64.9374 19.8559 64.9584 19.7941 65.0309 19.7216L64.3238 19.0144C64.0764 19.2619 63.9374 19.5734 63.9374 19.928H64.9374ZM65.0309 19.7216C65.0933 19.6591 65.1618 19.628 65.2694 19.628V18.628C64.9076 18.628 64.5814 18.7569 64.3238 19.0144L65.0309 19.7216ZM65.2694 19.628C65.3769 19.628 65.4454 19.6591 65.5078 19.7216L66.2149 19.0144C65.9573 18.7569 65.6312 18.628 65.2694 18.628V19.628ZM65.5202 19.7335C65.5819 19.7911 65.6014 19.8413 65.6014 19.912H66.6014C66.6014 19.5561 66.4609 19.2436 66.2025 19.0025L65.5202 19.7335ZM65.6014 19.912C65.6014 20.0195 65.5702 20.088 65.5078 20.1504L66.2149 20.8576C66.4725 20.6 66.6014 20.2738 66.6014 19.912H65.6014ZM65.5078 20.1504C65.4454 20.2129 65.3769 20.244 65.2694 20.244V21.244C65.6312 21.244 65.9573 21.1151 66.2149 20.8576L65.5078 20.1504ZM68.9903 19.128V18.628H68.4903V19.128H68.9903ZM70.1263 19.128H70.6263V18.628H70.1263V19.128ZM70.1263 31V31.5H70.6263V31H70.1263ZM68.9903 31H68.4903V31.5H68.9903V31ZM68.9903 19.628H70.1263V18.628H68.9903V19.628ZM69.6263 19.128V31H70.6263V19.128H69.6263ZM70.1263 30.5H68.9903V31.5H70.1263V30.5ZM69.4903 31V19.128H68.4903V31H69.4903ZM84.7386 28.008L85.1947 27.8031L85.0622 27.508H84.7386V28.008ZM78.4986 28.008V27.508H78.1751L78.0425 27.8031L78.4986 28.008ZM77.1546 31V31.5H77.4782L77.6107 31.2049L77.1546 31ZM75.9226 31L75.4679 30.7921L75.1443 31.5H75.9226V31ZM81.0426 19.8V19.3H80.7214L80.5879 19.5921L81.0426 19.8ZM82.2106 19.8L82.6654 19.5921L82.5318 19.3H82.2106V19.8ZM87.3306 31V31.5H88.109L87.7854 30.7921L87.3306 31ZM86.0826 31L85.6265 31.2049L85.7591 31.5H86.0826V31ZM84.3066 27.048V27.548H85.0777L84.7631 26.844L84.3066 27.048ZM81.6186 21.032L82.0751 20.828L81.6186 19.8063L81.1621 20.828L81.6186 21.032ZM78.9306 27.048L78.4741 26.844L78.1596 27.548H78.9306V27.048ZM84.7386 27.508H78.4986V28.508H84.7386V27.508ZM78.0425 27.8031L76.6985 30.7951L77.6107 31.2049L78.9547 28.2129L78.0425 27.8031ZM77.1546 30.5H75.9226V31.5H77.1546V30.5ZM76.3774 31.2079L81.4974 20.0079L80.5879 19.5921L75.4679 30.7921L76.3774 31.2079ZM81.0426 20.3H82.2106V19.3H81.0426V20.3ZM81.7559 20.0079L86.8759 31.2079L87.7854 30.7921L82.6654 19.5921L81.7559 20.0079ZM87.3306 30.5H86.0826V31.5H87.3306V30.5ZM86.5387 30.7951L85.1947 27.8031L84.2825 28.2129L85.6265 31.2049L86.5387 30.7951ZM84.7631 26.844L82.0751 20.828L81.1621 21.236L83.8501 27.252L84.7631 26.844ZM81.1621 20.828L78.4741 26.844L79.3871 27.252L82.0751 21.236L81.1621 20.828ZM78.9306 27.548H84.3066V26.548H78.9306V27.548ZM96.5453 19.128H97.0453V18.628H96.5453V19.128ZM96.5453 31V31.5H97.0453V31H96.5453ZM95.4573 31H94.9573V31.5H95.4573V31ZM95.4573 29.336H95.9573V27.5405L95.0292 29.0776L95.4573 29.336ZM94.0973 30.632L93.8637 30.1899L93.8602 30.1918L94.0973 30.632ZM90.0653 30.536L90.3118 30.101L90.3118 30.101L90.0653 30.536ZM88.5613 29.016L88.998 28.7726L88.998 28.7726L88.5613 29.016ZM88.5613 24.568L88.998 24.8114L88.998 24.8114L88.5613 24.568ZM90.0653 23.064L90.3062 23.5021L90.3118 23.499L90.0653 23.064ZM94.0493 22.952L93.8152 23.394L93.8256 23.3992L94.0493 22.952ZM95.4093 24.184L94.9895 24.4556L95.9093 25.8771V24.184H95.4093ZM95.4093 19.128V18.628H94.9093V19.128H95.4093ZM93.8893 29.672L94.1363 30.1067L94.1394 30.1049L93.8893 29.672ZM95.0093 28.504L94.5717 28.2619L94.5678 28.2692L95.0093 28.504ZM95.0093 25.08L94.5678 25.3148L94.5717 25.322L95.0093 25.08ZM93.8893 23.928L93.6348 24.3586L93.6464 24.3651L93.8893 23.928ZM90.6893 23.928L90.9363 24.3627L90.9394 24.3609L90.6893 23.928ZM89.5693 25.08L89.1317 24.8379L89.1278 24.8452L89.5693 25.08ZM89.5693 28.504L89.1278 28.7388L89.1317 28.746L89.5693 28.504ZM90.6893 29.672L90.4348 30.1026L90.4464 30.1091L90.6893 29.672ZM96.0453 19.128V31H97.0453V19.128H96.0453ZM96.5453 30.5H95.4573V31.5H96.5453V30.5ZM95.9573 31V29.336H94.9573V31H95.9573ZM95.0292 29.0776C94.7332 29.5678 94.346 29.9351 93.8637 30.1899L94.3308 31.0741C94.9792 30.7316 95.4986 30.2348 95.8853 29.5944L95.0292 29.0776ZM93.8602 30.1918C93.3866 30.4468 92.8404 30.58 92.2093 30.58V31.58C92.9861 31.58 93.6985 31.4146 94.3343 31.0722L93.8602 30.1918ZM92.2093 30.58C91.4998 30.58 90.8711 30.418 90.3118 30.101L89.8187 30.971C90.5394 31.3794 91.34 31.58 92.2093 31.58V30.58ZM90.3118 30.101C89.7526 29.7841 89.3166 29.3442 88.998 28.7726L88.1245 29.2594C88.5312 29.9891 89.0979 30.5625 89.8187 30.971L90.3118 30.101ZM88.998 28.7726C88.6815 28.2047 88.5173 27.5489 88.5173 26.792H87.5173C87.5173 27.6991 87.7157 28.5259 88.1245 29.2594L88.998 28.7726ZM88.5173 26.792C88.5173 26.035 88.6815 25.3793 88.998 24.8114L88.1245 24.3246C87.7157 25.0581 87.5173 25.8849 87.5173 26.792H88.5173ZM88.998 24.8114C89.3159 24.241 89.7502 23.8079 90.3062 23.5021L89.8243 22.6259C89.1003 23.0241 88.5319 23.5936 88.1245 24.3246L88.998 24.8114ZM90.3118 23.499C90.8711 23.182 91.4998 23.02 92.2093 23.02V22.02C91.34 22.02 90.5394 22.2206 89.8187 22.629L90.3118 23.499ZM92.2093 23.02C92.8194 23.02 93.351 23.1481 93.8153 23.3939L94.2832 22.5101C93.6595 22.1799 92.9644 22.02 92.2093 22.02V23.02ZM93.8256 23.3992C94.2967 23.6348 94.6837 23.9831 94.9895 24.4556L95.829 23.9124C95.4308 23.2969 94.9111 22.8239 94.2729 22.5048L93.8256 23.3992ZM95.9093 24.184V19.128H94.9093V24.184H95.9093ZM95.4093 19.628H96.5453V18.628H95.4093V19.628ZM92.3053 30.572C92.9708 30.572 93.5852 30.4198 94.1363 30.1067L93.6422 29.2373C93.2547 29.4575 92.8131 29.572 92.3053 29.572V30.572ZM94.1394 30.1049C94.7025 29.7796 95.1412 29.3207 95.4507 28.7388L94.5678 28.2692C94.344 28.69 94.036 29.0098 93.6391 29.2391L94.1394 30.1049ZM95.4468 28.746C95.7697 28.1622 95.9253 27.5066 95.9253 26.792H94.9253C94.9253 27.3574 94.8035 27.8431 94.5717 28.262L95.4468 28.746ZM95.9253 26.792C95.9253 26.0774 95.7697 25.4217 95.4468 24.838L94.5717 25.322C94.8035 25.7409 94.9253 26.2266 94.9253 26.792H95.9253ZM95.4507 24.8452C95.1403 24.2618 94.6994 23.8061 94.1321 23.4909L93.6464 24.3651C94.0391 24.5832 94.3448 24.8956 94.5678 25.3148L95.4507 24.8452ZM94.1436 23.4975C93.5914 23.1712 92.9743 23.012 92.3053 23.012V24.012C92.8095 24.012 93.2484 24.1301 93.6349 24.3585L94.1436 23.4975ZM92.3053 23.012C91.6271 23.012 91.001 23.1704 90.4391 23.4951L90.9394 24.3609C91.3375 24.1309 91.7887 24.012 92.3053 24.012V23.012ZM90.4422 23.4933C89.8879 23.8082 89.4508 24.2612 89.1317 24.838L90.0068 25.322C90.2424 24.8961 90.5519 24.5811 90.9363 24.3627L90.4422 23.4933ZM89.1278 24.8452C88.818 25.4276 88.6693 26.0807 88.6693 26.792H89.6693C89.6693 26.2233 89.7871 25.7351 90.0107 25.3148L89.1278 24.8452ZM88.6693 26.792C88.6693 27.5033 88.818 28.1564 89.1278 28.7388L90.0107 28.2692C89.7871 27.8489 89.6693 27.3607 89.6693 26.792H88.6693ZM89.1317 28.746C89.4499 29.3212 89.8848 29.7774 90.4349 30.1025L90.9436 29.2415C90.555 29.0119 90.2432 28.6894 90.0068 28.262L89.1317 28.746ZM90.4464 30.1091C91.0071 30.4206 91.6306 30.572 92.3053 30.572V29.572C91.7852 29.572 91.3314 29.4568 90.9321 29.2349L90.4464 30.1091ZM107.389 19.128H107.889V18.628H107.389V19.128ZM107.389 31V31.5H107.889V31H107.389ZM106.301 31H105.801V31.5H106.301V31ZM106.301 29.336H106.801V27.5405L105.873 29.0776L106.301 29.336ZM104.941 30.632L104.707 30.1899L104.704 30.1918L104.941 30.632ZM100.909 30.536L101.156 30.101L101.156 30.101L100.909 30.536ZM99.405 29.016L99.8417 28.7726L99.8417 28.7726L99.405 29.016ZM99.405 24.568L99.8417 24.8114L99.8417 24.8114L99.405 24.568ZM100.909 23.064L101.15 23.5021L101.156 23.499L100.909 23.064ZM104.893 22.952L104.659 23.394L104.669 23.3992L104.893 22.952ZM106.253 24.184L105.833 24.4556L106.753 25.8771V24.184H106.253ZM106.253 19.128V18.628H105.753V19.128H106.253ZM104.733 29.672L104.98 30.1067L104.983 30.1049L104.733 29.672ZM105.853 28.504L105.415 28.2619L105.412 28.2692L105.853 28.504ZM105.853 25.08L105.412 25.3148L105.415 25.322L105.853 25.08ZM104.733 23.928L104.479 24.3586L104.49 24.3651L104.733 23.928ZM101.533 23.928L101.78 24.3627L101.783 24.3609L101.533 23.928ZM100.413 25.08L99.9754 24.8379L99.9716 24.8452L100.413 25.08ZM100.413 28.504L99.9715 28.7388L99.9755 28.746L100.413 28.504ZM101.533 29.672L101.279 30.1026L101.29 30.1091L101.533 29.672ZM106.889 19.128V31H107.889V19.128H106.889ZM107.389 30.5H106.301V31.5H107.389V30.5ZM106.801 31V29.336H105.801V31H106.801ZM105.873 29.0776C105.577 29.5678 105.19 29.9351 104.707 30.1899L105.175 31.0741C105.823 30.7316 106.342 30.2348 106.729 29.5944L105.873 29.0776ZM104.704 30.1918C104.23 30.4468 103.684 30.58 103.053 30.58V31.58C103.83 31.58 104.542 31.4146 105.178 31.0722L104.704 30.1918ZM103.053 30.58C102.344 30.58 101.715 30.418 101.156 30.101L100.662 30.971C101.383 31.3794 102.184 31.58 103.053 31.58V30.58ZM101.156 30.101C100.596 29.7841 100.16 29.3442 99.8417 28.7726L98.9683 29.2594C99.375 29.9891 99.9417 30.5625 100.662 30.971L101.156 30.101ZM99.8417 28.7726C99.5252 28.2047 99.361 27.5489 99.361 26.792H98.361C98.361 27.6991 98.5594 28.5259 98.9683 29.2594L99.8417 28.7726ZM99.361 26.792C99.361 26.035 99.5252 25.3793 99.8417 24.8114L98.9683 24.3246C98.5594 25.0581 98.361 25.8849 98.361 26.792H99.361ZM99.8417 24.8114C100.16 24.241 100.594 23.8079 101.15 23.5021L100.668 22.6259C99.9441 23.0241 99.3757 23.5936 98.9683 24.3246L99.8417 24.8114ZM101.156 23.499C101.715 23.182 102.344 23.02 103.053 23.02V22.02C102.184 22.02 101.383 22.2206 100.662 22.629L101.156 23.499ZM103.053 23.02C103.663 23.02 104.195 23.1481 104.659 23.3939L105.127 22.5101C104.503 22.1799 103.808 22.02 103.053 22.02V23.02ZM104.669 23.3992C105.14 23.6348 105.527 23.9831 105.833 24.4556L106.673 23.9124C106.275 23.2969 105.755 22.8239 105.117 22.5048L104.669 23.3992ZM106.753 24.184V19.128H105.753V24.184H106.753ZM106.253 19.628H107.389V18.628H106.253V19.628ZM103.149 30.572C103.815 30.572 104.429 30.4198 104.98 30.1067L104.486 29.2373C104.098 29.4575 103.657 29.572 103.149 29.572V30.572ZM104.983 30.1049C105.546 29.7796 105.985 29.3207 106.294 28.7388L105.412 28.2692C105.188 28.69 104.88 29.0098 104.483 29.2391L104.983 30.1049ZM106.291 28.746C106.613 28.1622 106.769 27.5066 106.769 26.792H105.769C105.769 27.3574 105.647 27.8431 105.415 28.262L106.291 28.746ZM106.769 26.792C106.769 26.0774 106.613 25.4217 106.291 24.838L105.415 25.322C105.647 25.7409 105.769 26.2266 105.769 26.792H106.769ZM106.294 24.8452C105.984 24.2618 105.543 23.8061 104.976 23.4909L104.49 24.3651C104.883 24.5832 105.189 24.8956 105.412 25.3148L106.294 24.8452ZM104.987 23.4975C104.435 23.1712 103.818 23.012 103.149 23.012V24.012C103.653 24.012 104.092 24.1301 104.479 24.3585L104.987 23.4975ZM103.149 23.012C102.471 23.012 101.845 23.1704 101.283 23.4951L101.783 24.3609C102.181 24.1309 102.632 24.012 103.149 24.012V23.012ZM101.286 23.4933C100.732 23.8082 100.295 24.2612 99.9755 24.838L100.851 25.322C101.086 24.8961 101.396 24.5811 101.78 24.3627L101.286 23.4933ZM99.9716 24.8452C99.6618 25.4276 99.513 26.0807 99.513 26.792H100.513C100.513 26.2233 100.631 25.7351 100.854 25.3148L99.9716 24.8452ZM99.513 26.792C99.513 27.5033 99.6618 28.1564 99.9716 28.7388L100.854 28.2692C100.631 27.8489 100.513 27.3607 100.513 26.792H99.513ZM99.9755 28.746C100.294 29.3212 100.729 29.7774 101.279 30.1025L101.787 29.2415C101.399 29.0119 101.087 28.6894 100.851 28.262L99.9755 28.746ZM101.29 30.1091C101.851 30.4206 102.474 30.572 103.149 30.572V29.572C102.629 29.572 102.175 29.4568 101.776 29.2349L101.29 30.1091ZM111.641 24.232H111.141L112.093 24.4453L111.641 24.232ZM112.825 22.952L112.587 22.512L112.583 22.5141L112.825 22.952ZM114.793 22.52H115.293V22.02H114.793V22.52ZM114.793 23.624L114.763 24.1231L115.293 24.1543V23.624H114.793ZM114.521 23.608L114.55 23.1089L114.535 23.108H114.521V23.608ZM112.441 24.424L112.808 24.7628L112.808 24.7628L112.441 24.424ZM111.689 31V31.5H112.189V31H111.689ZM110.553 31H110.053V31.5H110.553V31ZM110.553 22.584V22.084H110.053V22.584H110.553ZM111.641 22.584H112.141V22.084H111.641V22.584ZM112.093 24.4453C112.317 23.9704 112.64 23.6246 113.066 23.3899L112.583 22.5141C111.964 22.8554 111.498 23.363 111.189 24.0187L112.093 24.4453ZM113.062 23.392C113.505 23.153 114.074 23.02 114.793 23.02V22.02C113.954 22.02 113.211 22.175 112.587 22.512L113.062 23.392ZM114.293 22.52V23.624H115.293V22.52H114.293ZM114.822 23.1249L114.55 23.1089L114.491 24.1071L114.763 24.1231L114.822 23.1249ZM114.521 23.108C113.526 23.108 112.688 23.4184 112.073 24.0852L112.808 24.7628C113.197 24.3416 113.745 24.108 114.521 24.108V23.108ZM112.073 24.0852C111.462 24.7483 111.189 25.647 111.189 26.712H112.189C112.189 25.8143 112.417 25.1877 112.808 24.7628L112.073 24.0852ZM111.189 26.712V31H112.189V26.712H111.189ZM111.689 30.5H110.553V31.5H111.689V30.5ZM111.053 31V22.584H110.053V31H111.053ZM110.553 23.084H111.641V22.084H110.553V23.084ZM111.141 22.584V24.232H112.141V22.584H111.141ZM124.1 27.144V27.644H124.577L124.599 27.1667L124.1 27.144ZM117.06 27.144V26.644H116.522L116.561 27.1805L117.06 27.144ZM118.068 29.272L117.734 29.6446L117.738 29.6479L118.068 29.272ZM121.812 29.8L122.003 30.262L122.012 30.2578L121.812 29.8ZM122.948 28.968L123.325 28.6399L122.95 28.2092L122.573 28.6372L122.948 28.968ZM123.588 29.704L123.972 30.0241L124.244 29.6971L123.965 29.3759L123.588 29.704ZM122.18 30.728L121.988 30.2662L121.985 30.2675L122.18 30.728ZM118.036 30.536L117.79 30.9715L117.798 30.976L118.036 30.536ZM116.484 29L116.05 29.2488L116.05 29.2488L116.484 29ZM116.452 24.584L116.015 24.3406L116.012 24.3461L116.452 24.584ZM117.924 23.064L117.674 22.6308L117.671 22.6327L117.924 23.064ZM122.132 23.064L122.384 22.6327L122.132 23.064ZM123.588 24.584L123.148 24.8219L123.149 24.825L123.588 24.584ZM124.116 26.792L124.615 26.8147L124.616 26.8034V26.792H124.116ZM117.988 24.28L118.33 24.6441L118.33 24.6439L117.988 24.28ZM117.06 26.296L116.562 26.2513L116.513 26.796H117.06V26.296ZM123.028 26.296V26.796H123.574L123.525 26.2513L123.028 26.296ZM122.084 24.28L121.737 24.6406L121.744 24.6474L122.084 24.28ZM124.1 26.644H117.06V27.644H124.1V26.644ZM116.561 27.1805C116.634 28.1737 117.022 29.0074 117.734 29.6446L118.401 28.8994C117.897 28.4486 117.613 27.8636 117.558 27.1075L116.561 27.1805ZM117.738 29.6479C118.45 30.2729 119.341 30.572 120.372 30.572V29.572C119.546 29.572 118.901 29.3377 118.397 28.8961L117.738 29.6479ZM120.372 30.572C120.953 30.572 121.499 30.4709 122.003 30.2619L121.62 29.3381C121.249 29.4918 120.835 29.572 120.372 29.572V30.572ZM122.012 30.2578C122.517 30.0362 122.955 29.7152 123.322 29.2988L122.573 28.6372C122.3 28.9461 121.98 29.1798 121.611 29.3422L122.012 30.2578ZM122.57 29.2961L123.21 30.0321L123.965 29.3759L123.325 28.6399L122.57 29.2961ZM123.203 29.3839C122.884 29.7667 122.482 30.0609 121.988 30.2662L122.371 31.1898C123.007 30.9257 123.544 30.5373 123.972 30.0241L123.203 29.3839ZM121.985 30.2675C121.498 30.4732 120.952 30.58 120.34 30.58V31.58C121.071 31.58 121.751 31.4521 122.374 31.1885L121.985 30.2675ZM120.34 30.58C119.547 30.58 118.863 30.4144 118.273 30.096L117.798 30.976C118.552 31.383 119.404 31.58 120.34 31.58V30.58ZM118.281 30.1006C117.697 29.7709 117.245 29.3229 116.917 28.7512L116.05 29.2488C116.468 29.9785 117.051 30.5545 117.79 30.9714L118.281 30.1006ZM116.917 28.7512C116.591 28.1833 116.424 27.5345 116.424 26.792H115.424C115.424 27.6921 115.629 28.5154 116.05 29.2488L116.917 28.7512ZM116.424 26.792C116.424 26.0444 116.583 25.3917 116.891 24.8219L116.012 24.3461C115.616 25.0776 115.424 25.8969 115.424 26.792H116.424ZM116.888 24.8274C117.209 24.2515 117.638 23.8111 118.176 23.4953L117.671 22.6327C116.972 23.0422 116.419 23.6151 116.015 24.3406L116.888 24.8274ZM118.173 23.4972C118.721 23.1815 119.338 23.02 120.036 23.02V22.02C119.176 22.02 118.385 22.2212 117.674 22.6308L118.173 23.4972ZM120.036 23.02C120.733 23.02 121.343 23.1815 121.879 23.4953L122.384 22.6327C121.682 22.2212 120.895 22.02 120.036 22.02V23.02ZM121.879 23.4953C122.416 23.8103 122.838 24.2489 123.148 24.8219L124.027 24.3461C123.633 23.6177 123.084 23.043 122.384 22.6327L121.879 23.4953ZM123.149 24.825C123.455 25.3814 123.616 26.0324 123.616 26.792H124.616C124.616 25.8876 124.424 25.0666 124.026 24.343L123.149 24.825ZM123.616 26.7693L123.6 27.1213L124.599 27.1667L124.615 26.8147L123.616 26.7693ZM120.036 22.996C119.106 22.996 118.298 23.3001 117.645 23.9161L118.33 24.6439C118.786 24.2146 119.343 23.996 120.036 23.996V22.996ZM117.645 23.9159C117.001 24.5218 116.646 25.3129 116.562 26.2513L117.557 26.3407C117.623 25.6151 117.886 25.0622 118.33 24.6441L117.645 23.9159ZM117.06 26.796H123.028V25.796H117.06V26.796ZM123.525 26.2513C123.441 25.31 123.078 24.518 122.423 23.9126L121.744 24.6474C122.198 25.066 122.465 25.618 122.53 26.3407L123.525 26.2513ZM122.43 23.9194C121.784 23.299 120.973 22.996 120.036 22.996V23.996C120.74 23.996 121.295 24.2157 121.737 24.6406L122.43 23.9194ZM126.716 30.792L126.56 31.2673L126.57 31.2702L126.716 30.792ZM125.26 30.04L124.826 29.7919L124.62 30.1525L124.936 30.4213L125.26 30.04ZM125.772 29.144L126.081 28.7513L125.625 28.3922L125.338 28.8959L125.772 29.144ZM127.1 29.832L126.939 30.3055L126.947 30.3082L127.1 29.832ZM130.46 29.736L130.731 30.1558L130.734 30.1539L130.46 29.736ZM130.716 27.992L130.382 28.3646L130.388 28.3696L130.394 28.3745L130.716 27.992ZM129.948 27.592L129.8 28.0695L129.807 28.0719L129.815 28.074L129.948 27.592ZM128.716 27.32L128.624 27.8115L128.634 27.8132L128.716 27.32ZM127.068 26.936L126.91 27.4105L126.921 27.4139L127.068 26.936ZM125.996 26.248L125.624 26.5825L125.63 26.5892L125.996 26.248ZM126.444 23.192L126.14 22.7946L126.14 22.7946L126.444 23.192ZM130.524 22.744L130.391 23.2262L130.4 23.2285L130.524 22.744ZM131.868 23.304L132.307 23.5429L132.525 23.1415L132.145 22.888L131.868 23.304ZM131.372 24.216L131.087 24.6271L131.545 24.944L131.811 24.4549L131.372 24.216ZM127.244 23.88L126.961 23.4676L126.955 23.4715L127.244 23.88ZM127.004 25.656L126.66 26.0191L126.669 26.0276L127.004 25.656ZM127.788 26.088L127.64 26.5655L127.647 26.5679L127.655 26.57L127.788 26.088ZM129.068 26.36L129.161 25.8688L129.155 25.8676L129.068 26.36ZM130.684 26.744L130.533 27.2208L130.533 27.2208L130.684 26.744ZM131.724 27.4L131.358 27.7407L131.358 27.7407L131.724 27.4ZM131.228 30.44L131.515 30.8493L131.516 30.8483L131.228 30.44ZM128.684 30.58C128.049 30.58 127.442 30.4908 126.862 30.3138L126.57 31.2702C127.248 31.4772 127.954 31.58 128.684 31.58V30.58ZM126.871 30.3168C126.291 30.1267 125.87 29.9021 125.583 29.6587L124.936 30.4213C125.353 30.7752 125.903 31.052 126.56 31.2672L126.871 30.3168ZM125.694 30.2881L126.206 29.3921L125.338 28.8959L124.826 29.7919L125.694 30.2881ZM125.462 29.5367C125.869 29.8569 126.365 30.1103 126.939 30.3054L127.261 29.3586C126.768 29.191 126.379 28.9858 126.081 28.7513L125.462 29.5367ZM126.947 30.3082C127.531 30.4951 128.138 30.588 128.764 30.588V29.588C128.238 29.588 127.735 29.5102 127.252 29.3558L126.947 30.3082ZM128.764 30.588C129.563 30.588 130.246 30.4696 130.731 30.1558L130.188 29.3162C129.948 29.4717 129.501 29.588 128.764 29.588V30.588ZM130.734 30.1539C131.245 29.8185 131.52 29.322 131.52 28.712H130.52C130.52 28.9767 130.421 29.1629 130.185 29.3181L130.734 30.1539ZM131.52 28.712C131.52 28.2826 131.373 27.8916 131.038 27.6095L130.394 28.3745C130.464 28.4338 130.52 28.5227 130.52 28.712H131.52ZM131.049 27.6194C130.78 27.3781 130.451 27.2122 130.081 27.11L129.815 28.074C130.063 28.1425 130.247 28.2432 130.382 28.3646L131.049 27.6194ZM130.096 27.1145C129.756 27.009 129.321 26.9139 128.798 26.8268L128.634 27.8132C129.135 27.8967 129.521 27.983 129.8 28.0695L130.096 27.1145ZM128.808 26.8286C128.134 26.7023 127.605 26.5783 127.215 26.4581L126.921 27.4139C127.362 27.5497 127.932 27.6817 128.624 27.8114L128.808 26.8286ZM127.226 26.4617C126.889 26.3493 126.603 26.1657 126.361 25.9068L125.63 26.5892C125.986 26.9703 126.415 27.2453 126.91 27.4103L127.226 26.4617ZM126.367 25.9135C126.185 25.711 126.064 25.4014 126.064 24.92H125.064C125.064 25.5693 125.23 26.145 125.624 26.5825L126.367 25.9135ZM126.064 24.92C126.064 24.3805 126.277 23.9481 126.747 23.5894L126.14 22.7946C125.437 23.3319 125.064 24.0515 125.064 24.92H126.064ZM126.747 23.5894C127.217 23.2306 127.912 23.02 128.892 23.02V22.02C127.781 22.02 126.844 22.2574 126.14 22.7946L126.747 23.5894ZM128.892 23.02C129.389 23.02 129.889 23.0882 130.391 23.2262L130.656 22.2618C130.071 22.1011 129.482 22.02 128.892 22.02V23.02ZM130.4 23.2285C130.906 23.3575 131.298 23.5251 131.59 23.72L132.145 22.888C131.734 22.6136 131.229 22.4078 130.647 22.2595L130.4 23.2285ZM131.429 23.0651L130.933 23.9771L131.811 24.4549L132.307 23.5429L131.429 23.0651ZM131.656 23.8049C130.868 23.2592 129.939 22.996 128.892 22.996V23.996C129.765 23.996 130.489 24.2128 131.087 24.6271L131.656 23.8049ZM128.892 22.996C128.121 22.996 127.454 23.1296 126.961 23.4676L127.527 24.2924C127.78 24.1184 128.212 23.996 128.892 23.996V22.996ZM126.955 23.4715C126.471 23.8138 126.2 24.2971 126.2 24.888H127.2C127.2 24.6469 127.292 24.4582 127.532 24.2885L126.955 23.4715ZM126.2 24.888C126.2 25.3233 126.343 25.7184 126.66 26.019L127.348 25.293C127.26 25.2096 127.2 25.0927 127.2 24.888H126.2ZM126.669 26.0276C126.943 26.2739 127.27 26.4509 127.64 26.5655L127.936 25.6105C127.687 25.5331 127.491 25.4221 127.338 25.2844L126.669 26.0276ZM127.655 26.57C127.986 26.6614 128.431 26.7553 128.981 26.8524L129.155 25.8676C128.617 25.7727 128.208 25.6852 127.921 25.606L127.655 26.57ZM128.974 26.8512C129.637 26.9774 130.154 27.1011 130.533 27.2208L130.834 26.2672C130.403 26.1309 129.842 25.9986 129.161 25.8688L128.974 26.8512ZM130.533 27.2208C130.857 27.3229 131.129 27.495 131.358 27.7407L132.09 27.0593C131.743 26.6864 131.321 26.4211 130.834 26.2672L130.533 27.2208ZM131.358 27.7407C131.537 27.9333 131.656 28.2249 131.656 28.68H132.656C132.656 28.0471 132.486 27.4854 132.09 27.0593L131.358 27.7407ZM131.656 28.68C131.656 29.2481 131.43 29.6848 130.939 30.0317L131.516 30.8483C132.263 30.3205 132.656 29.5839 132.656 28.68H131.656ZM130.941 30.0307C130.447 30.3767 129.714 30.58 128.684 30.58V31.58C129.829 31.58 130.792 31.3566 131.515 30.8493L130.941 30.0307ZM134.544 30.792L134.388 31.2673L134.398 31.2702L134.544 30.792ZM133.088 30.04L132.654 29.7919L132.448 30.1525L132.764 30.4213L133.088 30.04ZM133.6 29.144L133.909 28.7513L133.454 28.3922L133.166 28.8959L133.6 29.144ZM134.928 29.832L134.767 30.3055L134.775 30.3082L134.928 29.832ZM138.288 29.736L138.56 30.1558L138.562 30.1539L138.288 29.736ZM138.544 27.992L138.21 28.3646L138.216 28.3696L138.222 28.3745L138.544 27.992ZM137.776 27.592L137.628 28.0695L137.635 28.0719L137.643 28.074L137.776 27.592ZM136.544 27.32L136.452 27.8115L136.462 27.8132L136.544 27.32ZM134.896 26.936L134.738 27.4105L134.749 27.4139L134.896 26.936ZM133.824 26.248L133.452 26.5825L133.458 26.5892L133.824 26.248ZM134.272 23.192L133.968 22.7946L133.968 22.7946L134.272 23.192ZM138.352 22.744L138.219 23.2262L138.228 23.2285L138.352 22.744ZM139.696 23.304L140.135 23.5429L140.353 23.1415L139.973 22.888L139.696 23.304ZM139.2 24.216L138.915 24.6271L139.373 24.944L139.639 24.4549L139.2 24.216ZM135.072 23.88L134.789 23.4676L134.784 23.4715L135.072 23.88ZM134.832 25.656L134.488 26.0191L134.497 26.0276L134.832 25.656ZM135.616 26.088L135.468 26.5655L135.475 26.5679L135.483 26.57L135.616 26.088ZM136.896 26.36L136.989 25.8688L136.983 25.8676L136.896 26.36ZM138.512 26.744L138.361 27.2208L138.361 27.2208L138.512 26.744ZM139.552 27.4L139.186 27.7407L139.186 27.7407L139.552 27.4ZM139.056 30.44L139.343 30.8493L139.344 30.8483L139.056 30.44ZM136.512 30.58C135.877 30.58 135.27 30.4908 134.69 30.3138L134.398 31.2702C135.076 31.4772 135.782 31.58 136.512 31.58V30.58ZM134.7 30.3168C134.119 30.1267 133.698 29.9021 133.411 29.6587L132.764 30.4213C133.182 30.7752 133.731 31.052 134.388 31.2672L134.7 30.3168ZM133.522 30.2881L134.034 29.3921L133.166 28.8959L132.654 29.7919L133.522 30.2881ZM133.29 29.5367C133.697 29.8569 134.193 30.1103 134.767 30.3054L135.089 29.3586C134.596 29.191 134.207 28.9858 133.909 28.7513L133.29 29.5367ZM134.775 30.3082C135.359 30.4951 135.966 30.588 136.592 30.588V29.588C136.066 29.588 135.563 29.5102 135.08 29.3558L134.775 30.3082ZM136.592 30.588C137.391 30.588 138.075 30.4696 138.56 30.1558L138.016 29.3162C137.776 29.4717 137.329 29.588 136.592 29.588V30.588ZM138.562 30.1539C139.073 29.8185 139.348 29.322 139.348 28.712H138.348C138.348 28.9767 138.25 29.1629 138.013 29.3181L138.562 30.1539ZM139.348 28.712C139.348 28.2826 139.201 27.8916 138.866 27.6095L138.222 28.3745C138.292 28.4338 138.348 28.5227 138.348 28.712H139.348ZM138.877 27.6194C138.608 27.3781 138.279 27.2122 137.909 27.11L137.643 28.074C137.891 28.1425 138.075 28.2432 138.21 28.3646L138.877 27.6194ZM137.924 27.1145C137.584 27.009 137.149 26.9139 136.626 26.8268L136.462 27.8132C136.963 27.8967 137.349 27.983 137.628 28.0695L137.924 27.1145ZM136.636 26.8286C135.962 26.7023 135.434 26.5783 135.043 26.4581L134.749 27.4139C135.19 27.5497 135.76 27.6817 136.452 27.8114L136.636 26.8286ZM135.054 26.4617C134.717 26.3493 134.431 26.1657 134.189 25.9068L133.458 26.5892C133.814 26.9703 134.243 27.2453 134.738 27.4103L135.054 26.4617ZM134.196 25.9135C134.013 25.711 133.892 25.4014 133.892 24.92H132.892C132.892 25.5693 133.058 26.145 133.452 26.5825L134.196 25.9135ZM133.892 24.92C133.892 24.3805 134.106 23.9481 134.575 23.5894L133.968 22.7946C133.265 23.3319 132.892 24.0515 132.892 24.92H133.892ZM134.575 23.5894C135.045 23.2306 135.74 23.02 136.72 23.02V22.02C135.609 22.02 134.672 22.2574 133.968 22.7946L134.575 23.5894ZM136.72 23.02C137.218 23.02 137.717 23.0882 138.22 23.2262L138.484 22.2618C137.899 22.1011 137.31 22.02 136.72 22.02V23.02ZM138.228 23.2285C138.734 23.3575 139.126 23.5251 139.419 23.72L139.973 22.888C139.562 22.6136 139.057 22.4078 138.475 22.2595L138.228 23.2285ZM139.257 23.0651L138.761 23.9771L139.639 24.4549L140.135 23.5429L139.257 23.0651ZM139.484 23.8049C138.696 23.2592 137.767 22.996 136.72 22.996V23.996C137.593 23.996 138.317 24.2128 138.915 24.6271L139.484 23.8049ZM136.72 22.996C135.949 22.996 135.282 23.1296 134.789 23.4676L135.355 24.2924C135.608 24.1184 136.04 23.996 136.72 23.996V22.996ZM134.784 23.4715C134.299 23.8138 134.028 24.2971 134.028 24.888H135.028C135.028 24.6469 135.12 24.4582 135.36 24.2885L134.784 23.4715ZM134.028 24.888C134.028 25.3233 134.171 25.7184 134.488 26.019L135.176 25.293C135.088 25.2096 135.028 25.0927 135.028 24.888H134.028ZM134.497 26.0276C134.771 26.2739 135.098 26.4509 135.468 26.5655L135.764 25.6105C135.515 25.5331 135.319 25.4221 135.166 25.2844L134.497 26.0276ZM135.483 26.57C135.814 26.6614 136.259 26.7553 136.809 26.8524L136.983 25.8676C136.445 25.7727 136.036 25.6852 135.749 25.606L135.483 26.57ZM136.802 26.8512C137.465 26.9774 137.982 27.1011 138.361 27.2208L138.662 26.2672C138.231 26.1309 137.671 25.9986 136.989 25.8688L136.802 26.8512ZM138.361 27.2208C138.685 27.3229 138.957 27.495 139.186 27.7407L139.918 27.0593C139.571 26.6864 139.15 26.4211 138.662 26.2672L138.361 27.2208ZM139.186 27.7407C139.365 27.9333 139.484 28.2249 139.484 28.68H140.484C140.484 28.0471 140.315 27.4854 139.918 27.0593L139.186 27.7407ZM139.484 28.68C139.484 29.2481 139.258 29.6848 138.767 30.0317L139.344 30.8483C140.091 30.3205 140.484 29.5839 140.484 28.68H139.484ZM138.769 30.0307C138.276 30.3767 137.543 30.58 136.512 30.58V31.58C137.657 31.58 138.62 31.3566 139.343 30.8493L138.769 30.0307Z" fill="white"/>
</svg>
