<svg width="80" height="52" viewBox="0 0 80 52" fill="none" xmlns="http://www.w3.org/2000/svg">
<path d="M0 0H76C77.0609 0 78.0783 0.421427 78.8284 1.17157C79.5786 1.92172 80 2.93913 80 4V48C80 49.0609 79.5786 50.0783 78.8284 50.8284C78.0783 51.5786 77.0609 52 76 52H0V0Z" fill="#E0B973"/>
<path d="M32.3679 30.096C35.728 30.096 38.24 27.68 38.24 24.4C38.24 21.12 35.728 18.704 32.3679 18.704C28.9759 18.704 26.4799 21.136 26.4799 24.4C26.4799 27.664 28.9759 30.096 32.3679 30.096ZM32.3679 29.04C29.6639 29.04 27.6479 27.072 27.6479 24.4C27.6479 21.728 29.6639 19.76 32.3679 19.76C35.0559 19.76 37.056 21.728 37.056 24.4C37.056 27.072 35.0559 29.04 32.3679 29.04ZM48.9418 30H50.3498L45.1658 23.872L50.0138 18.8H48.6538L42.0778 25.568V18.8H40.8938V30H42.0778V27.056L44.3658 24.736L48.9418 30Z" fill="#14274A"/>
<path d="M32.3679 30.596C35.9884 30.596 38.74 27.9716 38.74 24.4H37.74C37.74 27.3884 35.4675 29.596 32.3679 29.596V30.596ZM38.74 24.4C38.74 20.8284 35.9884 18.204 32.3679 18.204V19.204C35.4675 19.204 37.74 21.4116 37.74 24.4H38.74ZM32.3679 18.204C28.7145 18.204 25.9799 20.8454 25.9799 24.4H26.9799C26.9799 21.4266 29.2374 19.204 32.3679 19.204V18.204ZM25.9799 24.4C25.9799 27.9546 28.7145 30.596 32.3679 30.596V29.596C29.2374 29.596 26.9799 27.3734 26.9799 24.4H25.9799ZM32.3679 28.54C29.931 28.54 28.1479 26.7869 28.1479 24.4H27.1479C27.1479 27.3571 29.3969 29.54 32.3679 29.54V28.54ZM28.1479 24.4C28.1479 22.0131 29.931 20.26 32.3679 20.26V19.26C29.3969 19.26 27.1479 21.4429 27.1479 24.4H28.1479ZM32.3679 20.26C34.7855 20.26 36.556 22.0098 36.556 24.4H37.556C37.556 21.4462 35.3264 19.26 32.3679 19.26V20.26ZM36.556 24.4C36.556 26.7902 34.7855 28.54 32.3679 28.54V29.54C35.3264 29.54 37.556 27.3538 37.556 24.4H36.556ZM48.9418 30L48.5645 30.328L48.714 30.5H48.9418V30ZM50.3498 30V30.5H51.4277L50.7316 29.6771L50.3498 30ZM45.1658 23.872L44.8044 23.5265L44.4937 23.8516L44.7841 24.1949L45.1658 23.872ZM50.0138 18.8L50.3753 19.1455L51.1834 18.3H50.0138V18.8ZM48.6538 18.8V18.3H48.4425L48.2952 18.4516L48.6538 18.8ZM42.0778 25.568H41.5778V26.8001L42.4364 25.9164L42.0778 25.568ZM42.0778 18.8H42.5778V18.3H42.0778V18.8ZM40.8938 18.8V18.3H40.3938V18.8H40.8938ZM40.8938 30H40.3938V30.5H40.8938V30ZM42.0778 30V30.5H42.5778V30H42.0778ZM42.0778 27.056L41.7218 26.7049L41.5778 26.8509V27.056H42.0778ZM44.3658 24.736L44.7432 24.408L44.389 24.0005L44.0098 24.3849L44.3658 24.736ZM48.9418 30.5H50.3498V29.5H48.9418V30.5ZM50.7316 29.6771L45.5476 23.5491L44.7841 24.1949L49.9681 30.3229L50.7316 29.6771ZM45.5273 24.2175L50.3753 19.1455L49.6524 18.4545L44.8044 23.5265L45.5273 24.2175ZM50.0138 18.3H48.6538V19.3H50.0138V18.3ZM48.2952 18.4516L41.7192 25.2196L42.4364 25.9164L49.0124 19.1484L48.2952 18.4516ZM42.5778 25.568V18.8H41.5778V25.568H42.5778ZM42.0778 18.3H40.8938V19.3H42.0778V18.3ZM40.3938 18.8V30H41.3938V18.8H40.3938ZM40.8938 30.5H42.0778V29.5H40.8938V30.5ZM42.5778 30V27.056H41.5778V30H42.5778ZM42.4338 27.4071L44.7218 25.0871L44.0098 24.3849L41.7218 26.7049L42.4338 27.4071ZM43.9885 25.064L48.5645 30.328L49.3192 29.672L44.7432 24.408L43.9885 25.064Z" fill="#14274A"/>
</svg>
